<mxfile host="65bd71144e">
    <diagram id="_De-BAiJNRQcf56MGhLl" name="POC">
        <mxGraphModel dx="1034" dy="587" grid="1" gridSize="10" guides="1" tooltips="1" connect="1" arrows="1" fold="1" page="1" pageScale="1" pageWidth="850" pageHeight="1100" math="0" shadow="0">
            <root>
                <mxCell id="0"/>
                <mxCell id="1" parent="0"/>
                <mxCell id="4" value="product&lt;br&gt;" style="whiteSpace=wrap;html=1;aspect=fixed;" parent="1" vertex="1">
                    <mxGeometry x="75" y="540" width="230" height="230" as="geometry"/>
                </mxCell>
                <mxCell id="5" value="sales" style="whiteSpace=wrap;html=1;aspect=fixed;" parent="1" vertex="1">
                    <mxGeometry x="370" y="540" width="230" height="230" as="geometry"/>
                </mxCell>
                <mxCell id="41" style="edgeStyle=none;html=1;" parent="1" source="6" target="5" edge="1">
                    <mxGeometry relative="1" as="geometry"/>
                </mxCell>
                <mxCell id="42" style="edgeStyle=none;html=1;entryX=0.304;entryY=0.005;entryDx=0;entryDy=0;entryPerimeter=0;" parent="1" source="6" target="18" edge="1">
                    <mxGeometry relative="1" as="geometry"/>
                </mxCell>
                <mxCell id="47" style="edgeStyle=none;html=1;" parent="1" source="6" target="4" edge="1">
                    <mxGeometry relative="1" as="geometry"/>
                </mxCell>
                <mxCell id="6" value="producer-black-belt" style="whiteSpace=wrap;html=1;aspect=fixed;" parent="1" vertex="1">
                    <mxGeometry x="295" y="30" width="380" height="380" as="geometry"/>
                </mxCell>
                <mxCell id="7" value="Create" style="rounded=0;whiteSpace=wrap;html=1;" parent="1" vertex="1">
                    <mxGeometry x="130" y="680" width="120" height="30" as="geometry"/>
                </mxCell>
                <mxCell id="45" style="edgeStyle=none;html=1;" parent="1" source="8" edge="1">
                    <mxGeometry relative="1" as="geometry">
                        <mxPoint x="205.00000000000023" y="780" as="targetPoint"/>
                    </mxGeometry>
                </mxCell>
                <mxCell id="46" style="edgeStyle=none;html=1;entryX=0.5;entryY=1;entryDx=0;entryDy=0;" parent="1" source="8" target="5" edge="1">
                    <mxGeometry relative="1" as="geometry"/>
                </mxCell>
                <mxCell id="8" value="producer-white-belt" style="whiteSpace=wrap;html=1;aspect=fixed;" parent="1" vertex="1">
                    <mxGeometry x="340" y="910" width="290" height="290" as="geometry"/>
                </mxCell>
                <mxCell id="9" value="List" style="rounded=0;whiteSpace=wrap;html=1;" parent="1" vertex="1">
                    <mxGeometry x="130" y="720" width="120" height="30" as="geometry"/>
                </mxCell>
                <mxCell id="11" value="List" style="rounded=0;whiteSpace=wrap;html=1;" parent="1" vertex="1">
                    <mxGeometry x="425" y="680" width="120" height="30" as="geometry"/>
                </mxCell>
                <mxCell id="12" value="My Sales" style="rounded=0;whiteSpace=wrap;html=1;" parent="1" vertex="1">
                    <mxGeometry x="430" y="240" width="120" height="30" as="geometry"/>
                </mxCell>
                <mxCell id="14" value="Create New Product" style="rounded=0;whiteSpace=wrap;html=1;" parent="1" vertex="1">
                    <mxGeometry x="430" y="280" width="120" height="30" as="geometry"/>
                </mxCell>
                <mxCell id="17" value="List Products" style="rounded=0;whiteSpace=wrap;html=1;" parent="1" vertex="1">
                    <mxGeometry x="430" y="320" width="120" height="30" as="geometry"/>
                </mxCell>
                <mxCell id="18" value="access-control" style="whiteSpace=wrap;html=1;aspect=fixed;" parent="1" vertex="1">
                    <mxGeometry x="650" y="540" width="230" height="230" as="geometry"/>
                </mxCell>
                <mxCell id="19" value="List" style="rounded=0;whiteSpace=wrap;html=1;" parent="1" vertex="1">
                    <mxGeometry x="705" y="680" width="120" height="30" as="geometry"/>
                </mxCell>
                <mxCell id="20" value="Create" style="rounded=0;whiteSpace=wrap;html=1;" parent="1" vertex="1">
                    <mxGeometry x="705" y="720" width="120" height="30" as="geometry"/>
                </mxCell>
                <mxCell id="22" value="Access Control" style="rounded=0;whiteSpace=wrap;html=1;" parent="1" vertex="1">
                    <mxGeometry x="430" y="360" width="120" height="30" as="geometry"/>
                </mxCell>
                <mxCell id="23" value="My Sales" style="rounded=0;whiteSpace=wrap;html=1;" parent="1" vertex="1">
                    <mxGeometry x="425" y="1080" width="120" height="30" as="geometry"/>
                </mxCell>
                <mxCell id="24" value="Create New Product" style="rounded=0;whiteSpace=wrap;html=1;" parent="1" vertex="1">
                    <mxGeometry x="425" y="1120" width="120" height="30" as="geometry"/>
                </mxCell>
                <mxCell id="25" value="List Products" style="rounded=0;whiteSpace=wrap;html=1;" parent="1" vertex="1">
                    <mxGeometry x="425" y="1160" width="120" height="30" as="geometry"/>
                </mxCell>
                <mxCell id="48" value="Port: 3002" style="text;html=1;strokeColor=none;fillColor=none;align=center;verticalAlign=middle;whiteSpace=wrap;rounded=0;" parent="1" vertex="1">
                    <mxGeometry x="310" y="40" width="60" height="30" as="geometry"/>
                </mxCell>
                <mxCell id="49" value="Port: 3001" style="text;html=1;strokeColor=none;fillColor=none;align=center;verticalAlign=middle;whiteSpace=wrap;rounded=0;" parent="1" vertex="1">
                    <mxGeometry x="360" y="930" width="60" height="30" as="geometry"/>
                </mxCell>
                <mxCell id="50" value="Port:3003" style="text;html=1;strokeColor=none;fillColor=none;align=center;verticalAlign=middle;whiteSpace=wrap;rounded=0;" parent="1" vertex="1">
                    <mxGeometry x="90" y="550" width="60" height="30" as="geometry"/>
                </mxCell>
                <mxCell id="51" value="Port:3004" style="text;html=1;strokeColor=none;fillColor=none;align=center;verticalAlign=middle;whiteSpace=wrap;rounded=0;" parent="1" vertex="1">
                    <mxGeometry x="390" y="550" width="60" height="30" as="geometry"/>
                </mxCell>
                <mxCell id="52" value="Port:3005" style="text;html=1;strokeColor=none;fillColor=none;align=center;verticalAlign=middle;whiteSpace=wrap;rounded=0;" parent="1" vertex="1">
                    <mxGeometry x="670" y="550" width="60" height="30" as="geometry"/>
                </mxCell>
            </root>
        </mxGraphModel>
    </diagram>
    <diagram id="rMR32wzajqI0QJtsdbrY" name="FallbackHandler">
        <mxGraphModel dx="1034" dy="587" grid="1" gridSize="10" guides="1" tooltips="1" connect="1" arrows="1" fold="1" page="1" pageScale="1" pageWidth="850" pageHeight="1100" math="0" shadow="0">
            <root>
                <mxCell id="BRF4l3W3PRz1HfQWaGE7-0"/>
                <mxCell id="BRF4l3W3PRz1HfQWaGE7-1" parent="BRF4l3W3PRz1HfQWaGE7-0"/>
                <mxCell id="BRF4l3W3PRz1HfQWaGE7-2" value="Project1" style="whiteSpace=wrap;html=1;aspect=fixed;" vertex="1" parent="BRF4l3W3PRz1HfQWaGE7-1">
                    <mxGeometry x="310" y="90" width="250" height="250" as="geometry"/>
                </mxCell>
                <mxCell id="BRF4l3W3PRz1HfQWaGE7-14" style="edgeStyle=none;html=1;" edge="1" parent="BRF4l3W3PRz1HfQWaGE7-1" source="BRF4l3W3PRz1HfQWaGE7-3" target="BRF4l3W3PRz1HfQWaGE7-10">
                    <mxGeometry relative="1" as="geometry"/>
                </mxCell>
                <mxCell id="BRF4l3W3PRz1HfQWaGE7-3" value="Componente1" style="rounded=0;whiteSpace=wrap;html=1;" vertex="1" parent="BRF4l3W3PRz1HfQWaGE7-1">
                    <mxGeometry x="375" y="250" width="120" height="60" as="geometry"/>
                </mxCell>
                <mxCell id="BRF4l3W3PRz1HfQWaGE7-22" style="edgeStyle=none;html=1;entryX=0;entryY=0.368;entryDx=0;entryDy=0;entryPerimeter=0;fillColor=#a20025;strokeColor=#6F0000;" edge="1" parent="BRF4l3W3PRz1HfQWaGE7-1" source="BRF4l3W3PRz1HfQWaGE7-4" target="BRF4l3W3PRz1HfQWaGE7-10">
                    <mxGeometry relative="1" as="geometry"/>
                </mxCell>
                <mxCell id="BRF4l3W3PRz1HfQWaGE7-4" value="npm@component1" style="whiteSpace=wrap;html=1;aspect=fixed;" vertex="1" parent="BRF4l3W3PRz1HfQWaGE7-1">
                    <mxGeometry x="30" y="360" width="230" height="230" as="geometry"/>
                </mxCell>
                <mxCell id="BRF4l3W3PRz1HfQWaGE7-20" style="edgeStyle=none;html=1;entryX=1;entryY=0.5;entryDx=0;entryDy=0;fillColor=#a20025;strokeColor=#6F0000;" edge="1" parent="BRF4l3W3PRz1HfQWaGE7-1" source="BRF4l3W3PRz1HfQWaGE7-6" target="BRF4l3W3PRz1HfQWaGE7-19">
                    <mxGeometry relative="1" as="geometry"/>
                </mxCell>
                <mxCell id="BRF4l3W3PRz1HfQWaGE7-23" style="edgeStyle=none;html=1;entryX=0.5;entryY=1;entryDx=0;entryDy=0;fillColor=#60a917;strokeColor=#2D7600;" edge="1" parent="BRF4l3W3PRz1HfQWaGE7-1" source="BRF4l3W3PRz1HfQWaGE7-6" target="BRF4l3W3PRz1HfQWaGE7-16">
                    <mxGeometry relative="1" as="geometry"/>
                </mxCell>
                <mxCell id="BRF4l3W3PRz1HfQWaGE7-6" value="server@component1" style="whiteSpace=wrap;html=1;aspect=fixed;" vertex="1" parent="BRF4l3W3PRz1HfQWaGE7-1">
                    <mxGeometry x="320" y="640" width="230" height="230" as="geometry"/>
                </mxCell>
                <mxCell id="BRF4l3W3PRz1HfQWaGE7-15" style="edgeStyle=none;html=1;entryX=1.009;entryY=0.465;entryDx=0;entryDy=0;entryPerimeter=0;fillColor=#60a917;strokeColor=#2D7600;" edge="1" parent="BRF4l3W3PRz1HfQWaGE7-1" source="BRF4l3W3PRz1HfQWaGE7-10" target="BRF4l3W3PRz1HfQWaGE7-6">
                    <mxGeometry relative="1" as="geometry"/>
                </mxCell>
                <mxCell id="BRF4l3W3PRz1HfQWaGE7-18" style="edgeStyle=none;html=1;entryX=1;entryY=0.75;entryDx=0;entryDy=0;" edge="1" parent="BRF4l3W3PRz1HfQWaGE7-1" source="BRF4l3W3PRz1HfQWaGE7-10" target="BRF4l3W3PRz1HfQWaGE7-3">
                    <mxGeometry relative="1" as="geometry"/>
                </mxCell>
                <mxCell id="BRF4l3W3PRz1HfQWaGE7-10" value="FallbackHandler" style="ellipse;whiteSpace=wrap;html=1;aspect=fixed;" vertex="1" parent="BRF4l3W3PRz1HfQWaGE7-1">
                    <mxGeometry x="620" y="430" width="125" height="125" as="geometry"/>
                </mxCell>
                <mxCell id="BRF4l3W3PRz1HfQWaGE7-17" style="edgeStyle=none;html=1;fillColor=#60a917;strokeColor=#2D7600;" edge="1" parent="BRF4l3W3PRz1HfQWaGE7-1" source="BRF4l3W3PRz1HfQWaGE7-16">
                    <mxGeometry relative="1" as="geometry">
                        <mxPoint x="610" y="490" as="targetPoint"/>
                    </mxGeometry>
                </mxCell>
                <mxCell id="BRF4l3W3PRz1HfQWaGE7-16" value="&lt;span&gt;Load has been succeeded&lt;/span&gt;" style="rounded=0;whiteSpace=wrap;html=1;" vertex="1" parent="BRF4l3W3PRz1HfQWaGE7-1">
                    <mxGeometry x="375" y="510" width="120" height="60" as="geometry"/>
                </mxCell>
                <mxCell id="BRF4l3W3PRz1HfQWaGE7-21" style="edgeStyle=none;html=1;entryX=0.548;entryY=1.017;entryDx=0;entryDy=0;entryPerimeter=0;fillColor=#a20025;strokeColor=#6F0000;" edge="1" parent="BRF4l3W3PRz1HfQWaGE7-1" source="BRF4l3W3PRz1HfQWaGE7-19" target="BRF4l3W3PRz1HfQWaGE7-4">
                    <mxGeometry relative="1" as="geometry"/>
                </mxCell>
                <mxCell id="BRF4l3W3PRz1HfQWaGE7-19" value="&lt;span&gt;Load has not been succeeded&lt;/span&gt;" style="rounded=0;whiteSpace=wrap;html=1;" vertex="1" parent="BRF4l3W3PRz1HfQWaGE7-1">
                    <mxGeometry x="100" y="725" width="120" height="60" as="geometry"/>
                </mxCell>
            </root>
        </mxGraphModel>
    </diagram>
</mxfile>